<mxfile host="app.diagrams.net" modified="2023-09-26T08:34:27.475Z" agent="Mozilla/5.0 (Macintosh; Intel Mac OS X 10_15_7) AppleWebKit/537.36 (KHTML, like Gecko) Chrome/115.0.0.0 Safari/537.36" version="21.8.2" etag="fj-nbmProz1erpgT561-" type="github">
  <diagram name="Page-1" id="LjRQHV3PqEduunH_yMkQ">
    <mxGraphModel>
      <root>
        <mxCell id="0" />
        <mxCell id="1" parent="0" />
      </root>
    </mxGraphModel>
  </diagram>
</mxfile>
